<?xml version="1.0" encoding="UTF-8"?>
<svg id="Layer_2" data-name="Layer 2" xmlns="http://www.w3.org/2000/svg" xmlns:xlink="http://www.w3.org/1999/xlink" viewBox="0 0 1920 140">
  <defs>
    <style>
      .cls-1 {
        fill: none;
      }

      .cls-2 {
        clip-path: url(#clippath);
      }

      .cls-3 {
        fill: #eb7e23;
      }

      .cls-4 {
        fill: #fff;
      }
    </style>
    <clipPath id="clippath">
      <rect class="cls-1" x="0" y="0" width="1920" height="140" transform="translate(1920 140) rotate(-180)"/>
    </clipPath>
  </defs>
  <g id="Layer_1-2" data-name="Layer 1">
    <g class="cls-2">
      <g>
        <path class="cls-3" d="m2138.91-100.68C1959.64-91.85,848.19,7.67,667.54,3.32c-58.19-1.4-116.58,19.6-174.68,19.84-30.28.12-58.88.37-88.1,5.01-67.34,10.68-129.65,30.5-197.36,40.52-29.03,4.3-57.56,6.33-87.41,1.33-46.95-7.86-92.89-19.04-138.61-29.81C-91.32,23.1-163.73,5.34-236.82-11.01c-61.07-13.66-131.85-33.36-196.49-33.29-1.08-13.86-1.05-27.55.08-41.33,27.92.55,56.54,6.98,83.22,12.62,38.07,8.05,75.55,17.49,112.84,27.13C-164.31-27.05-92.2-6.85-19.45,12.22c43.73,11.46,89.15,24.74,135.17,31.06,28.46,3.9,56.57.69,83.49-4.16,64.1-11.55,122.28-32.63,186.45-44.03,29.35-5.21,58.53-5.61,89.22-5.66,57.11-.11,114.52-20.69,171.71-19.09,199.53,5.59,1329.07-96.4,1526-111-10.96,13.43-22.35,26.69-33.68,39.99Z"/>
        <g>
          <path class="cls-4" d="m2381.11,217.65c-208.53-21.87-1383.48-43.43-1593.52-58.78-49.59-3.62-100.01-6.2-148.95-4.05-90.91,4-181.45,17.4-275.53,12.35-68.07-3.66-82-19.96-146.24-26.84-144.79-15.5-305.7-56.23-440.5-71.46-5.84-7.99-9.32-16.18-10.32-24.33,39.22,1.25,77.46,7.98,114.71,14.73,97.85,17.73,195.1,36.24,290.75,56.39,69.46,14.63,85.16,16.68,161.58,17.67,77.35,1,204.11,4.79,278.61.02,55.22-3.54,118.58,2.59,174.6,6.72,202.29,14.93,423.23,11.91,626.07,22.75,18.17.97,979.46,29.66,997.63,30.6-10.94,7.82-20.73,15.74-28.88,24.23Z"/>
          <rect class="cls-4" x="216.54" y="132.86" width="1806.04" height="33.76"/>
        </g>
        <rect class="cls-3" x="474.59" y="-26.67" width="1470" height="49"/>
      </g>
    </g>
  </g>
</svg>